<svg width="40" height="40" viewBox="0 0 40 40" fill="none" xmlns="http://www.w3.org/2000/svg">
<g clip-path="url(#clip0_513_7318)">
<path fill-rule="evenodd" clip-rule="evenodd" d="M38.8594 26.666H1.13672C3.88227 34.434 11.2901 39.9993 19.9981 39.9993C28.7061 39.9993 36.1141 34.434 38.8594 26.666Z" fill="#262626"/>
<path fill-rule="evenodd" clip-rule="evenodd" d="M1.138 26.6673H38.8607C39.5978 24.5822 39.9987 22.3384 39.9987 20.0007C39.9987 17.6629 39.5978 15.4191 38.8609 13.334H1.13778C0.401111 15.4191 0 17.6629 0 20.0007C0 22.3384 0.401111 24.5822 1.138 26.6673Z" fill="white"/>
<path fill-rule="evenodd" clip-rule="evenodd" d="M1.13672 13.3333H38.8594C36.1143 5.56533 28.7061 0 19.9981 0C11.2903 0 3.88227 5.56533 1.13672 13.3333Z" fill="#F1453D"/>
<path fill-rule="evenodd" clip-rule="evenodd" d="M20.0559 20.1148L24.6217 24.3535L24.2968 16.6555C24.249 15.4888 23.235 15.7564 22.4986 16.1773C21.7526 16.6555 20.9015 16.6555 20.0024 16.3397C19.1033 16.6553 18.2521 16.6553 17.5059 16.1773C16.7697 15.7564 15.7559 15.4888 15.7081 16.6555L15.3828 24.3533L20.0561 20.1148H20.0559Z" fill="white"/>
<path fill-rule="evenodd" clip-rule="evenodd" d="M20.0268 20.1473L24.5928 24.3857L24.6684 24.4559L24.6639 24.353L24.3388 16.655C24.3159 16.0961 24.0722 15.811 23.6588 15.7801C23.3306 15.7557 22.9088 15.8953 22.4775 16.1419C21.7764 16.591 20.9555 16.6308 20.0162 16.301L20.0022 16.2961L19.9879 16.301C19.0488 16.6308 18.2279 16.591 17.5286 16.143C17.0953 15.8953 16.6737 15.7555 16.3455 15.7801C15.9322 15.8113 15.6884 16.0961 15.6655 16.655L15.3402 24.3528L15.3359 24.4541L15.411 24.3861L20.0844 20.1475L20.1655 20.0737H19.9479L20.0268 20.1473ZM20.0846 20.085L20.0557 20.1161L20.0273 20.0848L15.3539 24.3235L15.4248 24.3566L15.7502 16.6586C15.7713 16.1404 15.9839 15.8919 16.3517 15.8646C16.6595 15.8415 17.0666 15.9764 17.4848 16.2153C18.2062 16.6777 19.0539 16.7188 20.0159 16.381H19.9879C20.9504 16.7188 21.7982 16.6777 22.5213 16.2144C22.9375 15.9766 23.3448 15.8415 23.6526 15.8646C24.0206 15.8921 24.233 16.1404 24.2542 16.6584L24.5793 24.3566L24.6504 24.3237L20.0846 20.085Z" fill="#C09300"/>
<path fill-rule="evenodd" clip-rule="evenodd" d="M16.2339 16.3887L15.9184 23.8767L15.3828 24.3544L15.7079 16.6567C15.8608 16.5513 16.1288 16.3887 16.2339 16.3887ZM16.8753 16.9247L16.6075 23.1882L16.0719 23.7364L16.397 16.5038C16.5024 16.6089 16.8179 16.8673 16.8753 16.9247ZM17.4586 17.4027L17.2484 22.6269L16.8179 23.0473L17.0857 17.0871C17.1908 17.1922 17.4013 17.3453 17.4586 17.4027ZM18.0899 17.6707L17.8795 22.1231L17.4586 22.4644L17.669 17.5082C17.7744 17.556 17.9846 17.6707 18.0899 17.6707ZM18.6733 17.6707L18.5199 21.3811L18.0897 21.802L18.2524 17.7184C18.3575 17.7184 18.6253 17.7184 18.6733 17.6707ZM23.7713 16.3887L24.0868 23.8767L24.6224 24.3544L24.2973 16.6567C24.1444 16.5513 23.8764 16.3887 23.7713 16.3887ZM23.1299 16.9247L23.3977 23.1882L23.9333 23.7364L23.6081 16.5038C23.5028 16.6089 23.1873 16.8673 23.1299 16.9247ZM22.5466 17.4027L22.7568 22.6269L23.1873 23.0473L22.9195 17.0871C22.8144 17.1922 22.6039 17.3453 22.5466 17.4027ZM21.9153 17.6707L22.1257 22.1231L22.5466 22.4644L22.3361 17.5082C22.2308 17.556 22.0206 17.6707 21.9153 17.6707ZM21.3319 17.6707L21.4853 21.3811L21.9155 21.802L21.7528 17.7184C21.6477 17.7184 21.3799 17.7184 21.3319 17.6707ZM19.7575 20.9522L19.1124 23.8884L19.3584 24.1344L19.6155 23.9447L19.8561 22.2322L19.7557 23.9362L20.0028 24.2504L20.2497 23.9362L20.1497 22.2238L20.3904 23.9447L20.647 24.1344L20.8933 23.8884L20.2481 20.9522H19.7575Z" fill="#C09300"/>
<path fill-rule="evenodd" clip-rule="evenodd" d="M17.293 24.1915L19.0434 24.4593L19.7892 21.0644L18.565 19.6777L17.293 24.1915Z" fill="white"/>
<path fill-rule="evenodd" clip-rule="evenodd" d="M19.7702 20.9843L19.8315 21.0539L19.0735 24.505L17.2422 24.2246L18.5249 19.6786L18.5942 19.6523L18.608 19.6681L18.5831 19.7581L17.3435 24.1568L19.0113 24.415L19.7449 21.0795L19.7702 20.9843Z" fill="#C09300"/>
<path fill-rule="evenodd" clip-rule="evenodd" d="M18.2821 21.6653L19.1539 20.8326L19.0955 20.7715L18.3121 21.5157L18.1837 21.203L18.1055 21.235L18.2821 21.6653Z" fill="#C09300"/>
<path fill-rule="evenodd" clip-rule="evenodd" d="M18.8602 22.0169L19.4507 21.244L19.3833 21.1926L18.922 21.7982L18.7602 20.2793L18.6758 20.2882L18.8602 22.0169Z" fill="#C09300"/>
<path fill-rule="evenodd" clip-rule="evenodd" d="M19.1641 21.4982L19.4514 22.4899L19.5327 22.4662L19.2454 21.4746L19.1641 21.4982Z" fill="#C09300"/>
<path fill-rule="evenodd" clip-rule="evenodd" d="M18.9873 22.9728L19.058 23.0195L19.6391 22.1366L19.5685 22.0899L18.9873 22.9728ZM19.0593 22.9883L18.8796 21.9983L18.484 22.5368L18.3162 21.9395L17.7031 22.5683L18.0127 23.7035L18.3989 23.0703L18.6078 23.707L19.0487 23.0212L18.9776 22.9755L18.6327 23.5106L18.4216 22.8679L18.0416 23.4883L17.7971 22.5935L18.2749 22.105L18.4487 22.7243L18.8316 22.2083L18.976 23.0048L18.9971 23.1037L19.1625 23.8859L19.2453 23.8681L19.0593 22.9883Z" fill="#C09300"/>
<path fill-rule="evenodd" clip-rule="evenodd" d="M18.0029 23.6921L18.234 24.4599L18.5525 23.9243L18.7327 24.4736L18.8131 24.447L18.5736 23.7174L18.26 24.2516L18.0322 23.4961L17.6289 24.0628L17.6978 24.1121L18.0029 23.6921Z" fill="#C09300"/>
<path fill-rule="evenodd" clip-rule="evenodd" d="M21.4352 19.6777L22.7072 24.1913L20.9567 24.4593L20.2109 21.0644L21.4352 19.6777Z" fill="white"/>
<path fill-rule="evenodd" clip-rule="evenodd" d="M20.2275 20.9863L20.168 21.0539L20.926 24.505L22.7573 24.2246L21.4746 19.6786L21.4053 19.6523L21.3877 19.6723L21.4164 19.7581L22.656 24.1568L20.9882 24.415L20.2546 21.0795L20.2275 20.9863Z" fill="#C09300"/>
<path fill-rule="evenodd" clip-rule="evenodd" d="M21.7194 21.6653L20.8477 20.8326L20.9061 20.7715L21.6894 21.5157L21.8179 21.203L21.8961 21.235L21.7194 21.6653Z" fill="#C09300"/>
<path fill-rule="evenodd" clip-rule="evenodd" d="M21.1412 22.0169L20.5508 21.244L20.6181 21.1926L21.0794 21.7982L21.2412 20.2793L21.3257 20.2882L21.1412 22.0169Z" fill="#C09300"/>
<path fill-rule="evenodd" clip-rule="evenodd" d="M20.8335 21.4982L20.5462 22.4899L20.4648 22.4662L20.7522 21.4746L20.8335 21.4982Z" fill="#C09300"/>
<path fill-rule="evenodd" clip-rule="evenodd" d="M21.0112 22.9728L20.9405 23.0195L20.3594 22.1366L20.43 22.0899L21.0112 22.9728ZM20.9392 22.9883L21.1189 21.9983L21.5145 22.5368L21.6823 21.9395L22.2954 22.5683L21.9858 23.7035L21.5996 23.0703L21.3907 23.707L20.9498 23.0212L21.0209 22.9755L21.3658 23.5106L21.5769 22.8679L21.9569 23.4883L22.2014 22.5935L21.7236 22.105L21.5498 22.7243L21.1669 22.2083L21.0225 23.0048L21.0014 23.1037L20.836 23.8859L20.7532 23.8681L20.9392 22.9883Z" fill="#C09300"/>
<path fill-rule="evenodd" clip-rule="evenodd" d="M21.9938 23.6921L21.7627 24.4599L21.4443 23.9243L21.264 24.4736L21.1836 24.447L21.4231 23.7174L21.7367 24.2516L21.9645 23.4961L22.3678 24.0628L22.2989 24.1121L21.9938 23.6921Z" fill="#C09300"/>
<path fill-rule="evenodd" clip-rule="evenodd" d="M23.3484 25.893C23.664 25.8357 23.664 25.673 23.664 25.4626C23.9797 25.3575 23.8171 24.9848 24.0371 24.9848C23.8171 25.0422 23.7693 24.6115 23.5015 24.6693C23.5015 24.2959 23.1284 24.2484 22.8126 24.3533C22.1815 24.5639 21.0624 24.6117 20.0008 24.6117C18.9393 24.5639 17.8297 24.5639 17.1888 24.3533C16.8733 24.2484 16.5004 24.2962 16.5004 24.6693C16.2326 24.6115 16.1848 25.0422 15.9648 24.9848C16.1848 24.9848 16.0222 25.3575 16.3377 25.4626C16.3377 25.673 16.3377 25.8359 16.6631 25.893C17.3993 26.1035 18.6715 26.2086 20.0008 26.2086C21.3304 26.2086 22.6024 26.1035 23.3484 25.893Z" fill="white"/>
<path fill-rule="evenodd" clip-rule="evenodd" d="M23.7391 25.5189C23.8494 25.4677 23.9111 25.3822 23.948 25.2611C23.9527 25.2462 23.9696 25.1793 23.9723 25.1689C23.9945 25.0777 24.0851 24.9671 24.0851 24.9671C24.0851 24.9671 23.9436 24.8977 23.8763 24.8124L23.85 24.7789C23.7267 24.6213 23.6651 24.5842 23.5745 24.5829C23.5238 24.25 23.1747 24.1502 22.788 24.2789C22.2447 24.46 21.3065 24.5331 20.0011 24.5331C19.9034 24.5286 19.8056 24.5246 19.7078 24.5209L19.4127 24.5097C18.1516 24.4635 17.6407 24.4189 17.214 24.2786C16.7958 24.1395 16.4591 24.4584 16.4334 24.5842C16.3283 24.588 16.2511 24.6526 16.1525 24.7789L16.1263 24.8124C16.0587 24.8977 15.9062 24.996 15.9062 24.996C15.9062 24.996 16.008 25.0777 16.0302 25.1689C16.0327 25.1793 16.0498 25.2462 16.0543 25.2611C16.0965 25.3993 16.1814 25.5186 16.2596 25.5186C16.2678 25.8037 16.3467 25.9186 16.6496 25.972C17.3585 26.1749 18.6051 26.2886 20.0011 26.2886C21.396 26.2886 22.6438 26.1749 23.37 25.97C23.6767 25.9149 23.7665 25.6464 23.7391 25.5189ZM20.0011 26.13C18.6187 26.13 17.3847 26.0175 16.6851 25.8175C16.4469 25.7753 16.4174 25.7211 16.4174 25.4633V25.4062L16.3631 25.3882C16.2758 25.3591 16.2342 25.308 16.2058 25.2149C16.1983 25.1871 16.1911 25.1592 16.1842 25.1313C16.1465 24.976 16.1491 25.0184 16.1491 25.0184C16.1491 25.0184 16.2147 24.9562 16.2505 24.9106L16.2774 24.8764C16.366 24.7631 16.4116 24.732 16.484 24.7475L16.58 24.768V24.67C16.58 24.4055 16.8329 24.3189 17.1643 24.4293C17.6118 24.5762 18.1274 24.6213 19.4069 24.6682L19.7018 24.6793C19.8111 24.6835 19.9067 24.6875 19.9974 24.6915C21.324 24.6915 22.2729 24.6177 22.8383 24.4293C23.1694 24.3191 23.4227 24.4057 23.4227 24.67V24.768L23.5183 24.7473C23.5909 24.7317 23.6365 24.7631 23.7249 24.8764L23.7518 24.9106C23.8551 25.0417 23.854 25.0204 23.854 25.0204C23.854 25.0204 23.8289 25.0877 23.8183 25.1313C23.8156 25.1422 23.8005 25.2026 23.7965 25.2149C23.7683 25.308 23.7267 25.3591 23.6394 25.3882L23.5851 25.4062V25.4633C23.5851 25.7213 23.5563 25.7755 23.3345 25.8157C22.6178 26.0175 21.3827 26.13 20.0011 26.13Z" fill="#C09300"/>
<path fill-rule="evenodd" clip-rule="evenodd" d="M19.4729 24.2482C19.5084 24.2482 19.6896 24.3534 19.6896 24.3534C19.6896 24.3534 19.8533 24.4102 19.8853 24.4949C19.9435 24.6482 19.804 24.992 19.804 24.992C19.804 24.992 19.594 24.6447 19.4151 24.6691C19.0424 24.7169 18.4589 24.6691 18.1433 24.6118C17.8756 24.5638 17.2922 24.4587 16.9189 24.3534C16.8009 24.3018 16.5109 24.5209 16.4991 24.4551C16.4889 24.3978 16.4562 24.2207 16.5413 24.12C16.6669 23.972 16.9387 23.9038 17.0242 23.9231C17.3493 24.0282 17.7702 24.1336 18.1911 24.1909C18.6213 24.2482 19.0996 24.296 19.4729 24.2482Z" fill="white"/>
<path fill-rule="evenodd" clip-rule="evenodd" d="M17.9368 24.6176C17.4988 24.5371 17.17 24.4682 16.9035 24.3927C16.7146 24.3105 16.6506 24.1727 16.7166 24.0409C16.7733 23.9276 16.9135 23.8547 17.0388 23.8831C17.398 23.9996 17.8126 24.0969 18.1982 24.1493C18.7553 24.2238 19.1515 24.2473 19.4688 24.2067L19.4744 24.2065C19.5982 24.2065 19.7093 24.3105 19.7242 24.4325C19.7413 24.5725 19.6326 24.6829 19.422 24.7116C19.1482 24.7467 18.7228 24.7322 18.3704 24.6887C18.3513 24.7238 18.3215 24.7556 18.2775 24.794C18.2071 24.8558 18.142 24.9593 18.142 24.9593C18.142 24.9593 18.0824 24.8502 18.0264 24.7778C18.0191 24.7689 18.0153 24.7636 18.012 24.7593C17.972 24.7073 17.9468 24.664 17.9368 24.6176ZM18.3951 24.6065C18.7382 24.6476 19.1488 24.6611 19.4111 24.6276C19.5793 24.6047 19.6511 24.532 19.64 24.4427C19.6304 24.3622 19.5877 24.2911 19.4744 24.2911C19.2595 24.3131 18.7508 24.3087 18.1868 24.2333C17.7897 24.1775 17.3982 24.0877 17.0164 23.9649C16.9342 23.9462 16.832 23.9993 16.7922 24.0789C16.7497 24.1638 16.7902 24.2509 16.9322 24.3131C17.1868 24.3849 17.5077 24.4525 17.9344 24.5309C17.936 24.5202 17.938 24.5093 17.9406 24.4976L17.9395 24.5071C17.9395 24.3785 18.064 24.2545 18.1924 24.2545C18.316 24.2545 18.3973 24.4138 18.3973 24.5647C18.3973 24.5796 18.3966 24.5936 18.3951 24.6065Z" fill="#C09300"/>
<path fill-rule="evenodd" clip-rule="evenodd" d="M18.0922 24.7267L18.078 24.7083C18.0204 24.6338 18.0051 24.5918 18.0222 24.5172L18.0233 24.5078C18.0233 24.4261 18.1096 24.3398 18.1913 24.3398C18.2527 24.3398 18.3113 24.4554 18.3113 24.5654C18.3113 24.6378 18.2913 24.669 18.2209 24.731C18.1893 24.7585 18.1467 24.8072 18.1467 24.8072C18.1467 24.8072 18.1587 24.8125 18.0922 24.7267Z" fill="white"/>
<path fill-rule="evenodd" clip-rule="evenodd" d="M16.8802 23.9398C16.5473 23.8809 16.3273 24.2569 16.4622 24.526L16.502 24.6055L16.5386 24.5246C16.552 24.4953 16.5842 24.4762 16.6733 24.4413C16.7851 24.3975 16.8277 24.3724 16.8542 24.3142C16.8791 24.2444 16.8806 24.2035 16.8706 24.1438C16.8684 24.1318 16.8684 24.1304 16.8677 24.126C16.8624 24.0882 16.8693 24.0613 16.9077 24.0053L16.9451 23.9511L16.8802 23.9398Z" fill="#C09300"/>
<path fill-rule="evenodd" clip-rule="evenodd" d="M16.785 24.1389L16.7884 24.1589C16.7973 24.2007 16.7934 24.2442 16.777 24.2838C16.765 24.3098 16.7326 24.3286 16.6437 24.3638C16.5317 24.4075 16.5164 24.4266 16.5164 24.4266C16.4719 24.2418 16.6053 24.0253 16.8062 24.0195C16.7865 24.056 16.7791 24.0979 16.785 24.1389Z" fill="white"/>
<path fill-rule="evenodd" clip-rule="evenodd" d="M19.7482 25.1163L19.8249 25.0112C19.9087 24.8961 19.956 24.7278 19.9429 24.5876C19.9271 24.4207 19.8285 24.3125 19.6596 24.3125H19.5791L19.6247 24.3789C19.6547 24.4227 19.6505 24.4367 19.6076 24.4734L19.5774 24.4981C19.5118 24.5525 19.4805 24.5985 19.4805 24.6707C19.4805 24.7196 19.5098 24.7563 19.5667 24.7989C19.576 24.8061 19.586 24.8132 19.5994 24.8225L19.6327 24.8454C19.7151 24.9029 19.7482 24.9405 19.7482 24.9863V25.1163Z" fill="#C09300"/>
<path fill-rule="evenodd" clip-rule="evenodd" d="M19.6783 24.7754L19.6449 24.7522C19.6347 24.7453 19.6247 24.7381 19.6147 24.7307C19.5778 24.7029 19.5625 24.684 19.5625 24.6702C19.5625 24.6294 19.5807 24.6027 19.6289 24.5629L19.6596 24.5374C19.7325 24.4756 19.7261 24.4398 19.7261 24.4062C19.8036 24.4294 19.8465 24.4951 19.8561 24.5951C19.8647 24.6867 19.8421 24.7951 19.7987 24.8851C19.7889 24.8578 19.7829 24.848 19.6783 24.7754Z" fill="white"/>
<path fill-rule="evenodd" clip-rule="evenodd" d="M16.9688 24.1142L17.2847 24.2195L17.3841 24.2526L17.317 24.1722C17.2648 24.1098 17.0983 24.0566 16.9785 24.0566L16.9688 24.1142ZM17.4954 24.2771L17.8687 24.3824L17.891 24.3278C17.7945 24.2753 17.5803 24.2191 17.5039 24.2191L17.4954 24.2771ZM19.2521 24.4324C19.1388 24.4384 19.0623 24.4529 19.0254 24.4835L19.0481 24.536L19.4207 24.488L19.4172 24.4291C19.3439 24.4291 19.3021 24.4298 19.2521 24.4324ZM18.4468 24.4326L18.461 24.4886H18.8336L18.855 24.438C18.787 24.3695 18.5623 24.3693 18.4468 24.4326Z" fill="#C09300"/>
<path fill-rule="evenodd" clip-rule="evenodd" d="M20.5243 24.2482C20.4888 24.2482 20.3076 24.3534 20.3076 24.3534C20.3076 24.3534 20.1439 24.4102 20.1119 24.4949C20.0536 24.6482 20.1932 24.992 20.1932 24.992C20.1932 24.992 20.4032 24.6447 20.5821 24.6691C20.9548 24.7169 21.5383 24.6691 21.8539 24.6118C22.1216 24.5638 22.705 24.4587 23.0783 24.3534C23.1963 24.3018 23.4863 24.5209 23.4981 24.4551C23.5083 24.3978 23.541 24.2207 23.4559 24.12C23.3303 23.972 23.0585 23.9038 22.973 23.9231C22.5923 24.0455 22.202 24.135 21.8061 24.1909C21.3759 24.2482 20.8974 24.296 20.5243 24.2482Z" fill="white"/>
<path fill-rule="evenodd" clip-rule="evenodd" d="M22.0625 24.6176C22.5005 24.5371 22.8294 24.4682 23.0959 24.3927C23.2847 24.3105 23.3487 24.1727 23.2827 24.0409C23.2261 23.9276 23.0859 23.8547 22.9605 23.8831C22.6014 23.9996 22.1867 24.0969 21.8012 24.1493C21.2441 24.2238 20.8479 24.2473 20.5305 24.2067L20.5252 24.2065C20.4012 24.2065 20.2901 24.3105 20.2752 24.4325C20.2581 24.5725 20.3667 24.6829 20.5774 24.7116C20.8512 24.7467 21.2765 24.7322 21.629 24.6887C21.6481 24.7238 21.6779 24.7556 21.7219 24.794C21.7923 24.8558 21.8574 24.9593 21.8574 24.9593C21.8574 24.9593 21.917 24.8502 21.973 24.7778C21.9803 24.7689 21.9841 24.7636 21.9874 24.7593C22.0274 24.7073 22.0525 24.664 22.0625 24.6176ZM21.6043 24.6065C21.2612 24.6476 20.8505 24.6611 20.5883 24.6276C20.4201 24.6047 20.3483 24.532 20.3594 24.4427C20.369 24.3622 20.4116 24.2911 20.525 24.2911C20.7399 24.3131 21.2485 24.3087 21.8125 24.2333C22.2096 24.1775 22.6012 24.0877 22.983 23.9649C23.0652 23.9462 23.1674 23.9993 23.2072 24.0789C23.2496 24.1638 23.2092 24.2509 23.0672 24.3131C22.8125 24.3849 22.4916 24.4525 22.065 24.5309C22.0634 24.5197 22.0613 24.5086 22.0587 24.4976L22.0599 24.5071C22.0599 24.3785 21.9354 24.2545 21.807 24.2545C21.6834 24.2545 21.6021 24.4138 21.6021 24.5647C21.6021 24.5796 21.6027 24.5936 21.6043 24.6065Z" fill="#C09300"/>
<path fill-rule="evenodd" clip-rule="evenodd" d="M21.9066 24.7267L21.9208 24.7083C21.9784 24.6338 21.9937 24.5918 21.9766 24.5172L21.9755 24.5078C21.9755 24.4261 21.8893 24.3398 21.8075 24.3398C21.7462 24.3398 21.6875 24.4554 21.6875 24.5654C21.6875 24.6378 21.7075 24.669 21.7779 24.731C21.8095 24.7585 21.8522 24.8072 21.8522 24.8072C21.8522 24.8072 21.8402 24.8125 21.9066 24.7267Z" fill="white"/>
<path fill-rule="evenodd" clip-rule="evenodd" d="M23.1196 23.9398C23.4525 23.8809 23.6725 24.2569 23.5376 24.526L23.4978 24.6055L23.4611 24.5246C23.4478 24.4953 23.4156 24.4762 23.3265 24.4413C23.2147 24.3975 23.172 24.3724 23.1456 24.3142C23.1207 24.2444 23.1191 24.2035 23.1291 24.1438C23.1314 24.1318 23.1314 24.1304 23.132 24.126C23.1374 24.0882 23.1305 24.0613 23.092 24.0053L23.0547 23.9511L23.1196 23.9398Z" fill="#C09300"/>
<path fill-rule="evenodd" clip-rule="evenodd" d="M23.2164 24.1389L23.2131 24.1589C23.2041 24.2007 23.2081 24.2442 23.2244 24.2838C23.2364 24.3098 23.2689 24.3286 23.3578 24.3638C23.4698 24.4075 23.4851 24.4266 23.4851 24.4266C23.5295 24.2418 23.3962 24.0253 23.1953 24.0195C23.2046 24.0375 23.2246 24.0795 23.2164 24.1389Z" fill="white"/>
<path fill-rule="evenodd" clip-rule="evenodd" d="M20.2515 25.1163L20.1749 25.0112C20.0911 24.8961 20.0437 24.7278 20.0569 24.5876C20.0726 24.4207 20.1713 24.3125 20.3402 24.3125H20.4206L20.3751 24.3789C20.3451 24.4227 20.3493 24.4367 20.3922 24.4734L20.4224 24.4981C20.488 24.5525 20.5193 24.5985 20.5193 24.6707C20.5193 24.7196 20.49 24.7563 20.4331 24.7989C20.4223 24.807 20.4114 24.8149 20.4004 24.8225L20.3671 24.8454C20.2846 24.9029 20.2515 24.9405 20.2515 24.9863V25.1163Z" fill="#C09300"/>
<path fill-rule="evenodd" clip-rule="evenodd" d="M20.3202 24.7754L20.3536 24.7522C20.366 24.7438 20.3753 24.7371 20.3838 24.7307C20.4207 24.7029 20.436 24.684 20.436 24.6702C20.436 24.6294 20.4178 24.6027 20.3696 24.5629L20.3389 24.5374C20.266 24.4756 20.2725 24.4398 20.2725 24.4062C20.1949 24.4294 20.152 24.4951 20.1425 24.5951C20.1338 24.6867 20.1565 24.7951 20.1998 24.8851C20.2096 24.8578 20.2156 24.848 20.3202 24.7754Z" fill="white"/>
<path fill-rule="evenodd" clip-rule="evenodd" d="M23.0301 24.1142L22.7141 24.2195L22.6148 24.2526L22.6819 24.1722C22.7341 24.1098 22.9006 24.0566 23.0203 24.0566L23.0301 24.1142ZM22.5035 24.2771L22.1301 24.3824L22.1079 24.3278C22.2043 24.2753 22.4186 24.2191 22.495 24.2191L22.5035 24.2771ZM20.7468 24.4324C20.8601 24.4384 20.9366 24.4529 20.9735 24.4835L20.9508 24.536L20.5781 24.488L20.5817 24.4291C20.655 24.4291 20.6968 24.4298 20.7468 24.4324ZM21.5521 24.4326L21.5379 24.4886H21.1652L21.1439 24.438C21.2119 24.3695 21.4366 24.3693 21.5521 24.4326Z" fill="#C09300"/>
<path fill-rule="evenodd" clip-rule="evenodd" d="M16.8874 24.9287C16.8518 24.922 16.8332 24.8938 16.842 24.8605C16.8532 24.8198 16.8854 24.7965 16.9163 24.8074C16.9358 24.8142 16.9716 24.8505 16.9718 24.8634C16.9718 24.8782 16.9529 24.9136 16.9449 24.9136C16.9414 24.9136 16.936 24.9167 16.9327 24.9202C16.926 24.9282 16.9052 24.932 16.8874 24.9287ZM20.5494 25.19C20.536 25.1851 20.5149 25.1554 20.5152 25.1418C20.5152 25.116 20.5534 25.074 20.5769 25.0736C20.5887 25.0736 20.6207 25.0902 20.6325 25.1025C20.6543 25.1251 20.6496 25.1622 20.6223 25.1831C20.6089 25.1936 20.5689 25.1974 20.5494 25.19ZM20.5734 25.3554C20.5454 25.3458 20.5352 25.3322 20.5329 25.3011C20.5305 25.2687 20.5336 25.2638 20.5678 25.2451L20.5923 25.2318L20.6154 25.242C20.6474 25.2562 20.6616 25.2718 20.6627 25.2931C20.6638 25.3165 20.6467 25.3402 20.62 25.352C20.5965 25.3627 20.5952 25.3627 20.5734 25.3554Z" fill="#C09300"/>
<path fill-rule="evenodd" clip-rule="evenodd" d="M17.1814 24.6289C17.1583 24.6283 17.1268 24.6494 17.1085 24.66C17.0652 24.6703 17.0148 24.6969 16.973 24.6685C16.9319 24.6558 16.8774 24.6658 16.871 24.7165C16.8817 24.7598 16.9425 24.7847 16.9794 24.756C17.0068 24.7203 17.0814 24.6991 17.0899 24.7603C17.0592 24.8063 17.0628 24.8674 17.0377 24.9165C17.0328 24.947 17.0215 24.9761 17.0043 25.0018C16.9734 25.0049 16.9408 25.0014 16.9148 25.0205C16.8935 25.0214 16.8726 25.0272 16.8539 25.0373C16.8351 25.0474 16.8188 25.0616 16.8063 25.0789C16.7797 25.1174 16.7539 25.1567 16.7461 25.2038C16.7532 25.2523 16.8083 25.266 16.8501 25.2685C16.8945 25.2807 16.939 25.2967 16.9834 25.3103C17.0559 25.3265 17.1236 25.3525 17.1961 25.3685C17.3016 25.4003 17.4125 25.4151 17.519 25.4436C17.5301 25.4471 17.5405 25.4503 17.5523 25.4518C17.5963 25.4609 17.6194 25.4129 17.6232 25.3769C17.645 25.2996 17.6616 25.2209 17.6834 25.1436C17.6985 25.1125 17.7168 25.0423 17.6565 25.058C17.6221 25.0787 17.593 25.1096 17.5501 25.1123C17.4919 25.1156 17.5252 25.1754 17.5481 25.1998C17.5505 25.2205 17.5488 25.2414 17.543 25.2615C17.5373 25.2815 17.5277 25.3002 17.5148 25.3165C17.4801 25.3385 17.4368 25.3127 17.4001 25.304C17.3619 25.3047 17.2852 25.2851 17.321 25.2329C17.3337 25.1947 17.3348 25.1525 17.3501 25.1143C17.3696 25.0734 17.3725 25.0287 17.3814 24.9854C17.3574 24.9334 17.3161 25.0023 17.2837 25.008C17.261 25.0236 17.1765 25.0303 17.221 25.0707C17.2594 25.0996 17.2299 25.1505 17.2232 25.1874C17.2205 25.2385 17.1672 25.2509 17.1252 25.2394C17.0834 25.2371 17.0252 25.206 17.0608 25.1603C17.0688 25.1218 17.0821 25.0843 17.0897 25.0456C17.1057 24.9989 17.119 24.9547 17.1357 24.908C17.1428 24.8667 17.1576 24.8276 17.1772 24.7914C17.1783 24.7458 17.2092 24.7065 17.2083 24.6603C17.2054 24.6376 17.1952 24.6294 17.1814 24.6289ZM16.9419 25.1123C16.9468 25.1114 16.9519 25.1122 16.9563 25.1145C16.973 25.1214 16.9736 25.1349 16.9563 25.1498C16.949 25.1563 16.9405 25.1625 16.9376 25.1623C16.9065 25.1596 16.8972 25.1549 16.8961 25.1436C16.8948 25.1334 16.8981 25.1305 16.919 25.1205C16.9262 25.1167 16.9339 25.114 16.9419 25.1123ZM16.8728 25.4469C16.8396 25.4158 16.845 25.3931 16.8939 25.3567C16.9148 25.3411 16.9274 25.3429 16.9516 25.3647C16.9883 25.3983 16.9897 25.4196 16.9572 25.4483C16.9412 25.4627 16.9341 25.4656 16.9154 25.4656C16.8959 25.4658 16.8903 25.4634 16.8728 25.4469ZM17.0761 25.5083C17.0685 25.5064 17.0613 25.5031 17.0551 25.4984C17.0488 25.4937 17.0436 25.4878 17.0397 25.481C17.0358 25.4742 17.0333 25.4667 17.0324 25.4589C17.0315 25.4512 17.0323 25.4433 17.0345 25.4358C17.0432 25.4069 17.0481 25.404 17.0905 25.4036C17.1383 25.4029 17.1474 25.4109 17.1479 25.4529C17.1483 25.4765 17.1463 25.482 17.1345 25.4929C17.1265 25.4996 17.1171 25.5044 17.107 25.5071C17.0969 25.5097 17.0864 25.5101 17.0761 25.5083ZM23.0168 25.5136C23.0016 25.5009 22.9985 25.4954 22.9983 25.4794C22.9983 25.4518 23.0139 25.4318 23.0481 25.4163C23.0936 25.3958 23.1121 25.3985 23.1292 25.4287C23.1521 25.4687 23.151 25.4851 23.1237 25.5123C23.1085 25.5271 23.1059 25.5278 23.0714 25.5283C23.0374 25.5285 23.0336 25.5276 23.0168 25.5136ZM17.3461 25.5903C17.3217 25.5836 17.3092 25.5656 17.309 25.5365C17.3088 25.5143 17.3103 25.5107 17.3259 25.4985C17.3372 25.49 17.3504 25.4844 17.3643 25.482C17.3821 25.4798 17.3888 25.4811 17.403 25.4914C17.4396 25.5171 17.4474 25.5425 17.4263 25.5674C17.4037 25.5938 17.3821 25.5998 17.3461 25.5903ZM18.8074 25.6556C18.8021 25.6489 18.7901 25.6449 18.789 25.6365C18.7912 25.5994 18.7928 25.562 18.8045 25.5265C18.8112 25.4918 18.8054 25.4554 18.8177 25.4214C18.8301 25.3596 18.8301 25.2958 18.8443 25.2345C18.8443 25.2028 18.8487 25.1712 18.8572 25.1407C18.8676 25.0927 18.8581 25.0423 18.8723 24.9947C18.8708 24.9769 18.8914 24.9291 18.9094 24.9574C18.9356 24.9958 18.9701 25.0271 19.0041 25.0585C19.0332 25.0754 19.0063 25.1 18.9863 25.1085C18.9585 25.1196 18.9519 25.1498 18.9539 25.1767C18.9501 25.2043 18.939 25.2305 18.9379 25.2587C18.9319 25.3 18.933 25.3423 18.9276 25.3838C18.9156 25.4243 18.9201 25.4678 18.9161 25.5096C18.9168 25.5363 18.9041 25.5603 18.9059 25.5869C18.9025 25.614 18.9014 25.6465 18.8785 25.6651C18.8568 25.6763 18.8252 25.674 18.8074 25.6556ZM20.7874 25.0023C20.7552 25.0267 20.7265 25.0554 20.6979 25.0836C20.6583 25.1134 20.7303 25.1309 20.7394 25.1565C20.7501 25.1956 20.7494 25.2371 20.7521 25.2774C20.7639 25.314 20.7692 25.3531 20.7665 25.3918C20.7632 25.4334 20.709 25.4247 20.6854 25.448C20.6525 25.4618 20.6394 25.494 20.6143 25.5169C20.5981 25.5489 20.5936 25.5887 20.5916 25.6251C20.5939 25.6551 20.5714 25.6885 20.5916 25.7147L20.5999 25.7274C20.6065 25.7369 20.6228 25.7291 20.6332 25.7314C20.6668 25.7296 20.7019 25.7345 20.7332 25.7209C20.8139 25.7071 20.8954 25.706 20.977 25.7023C21.027 25.7038 21.075 25.6865 21.125 25.6876C21.1641 25.6965 21.1816 25.654 21.1812 25.6231C21.159 25.5796 21.1781 25.5278 21.1603 25.4836C21.1448 25.4387 21.1508 25.3883 21.1436 25.3418C21.1428 25.3054 21.0963 25.2918 21.0728 25.3189C21.0501 25.342 21.0132 25.3465 20.9956 25.3751C20.9761 25.4151 21.0376 25.4154 21.0479 25.446C21.0596 25.4771 21.0557 25.5114 21.0583 25.5438C21.0659 25.5834 21.023 25.5856 20.9956 25.5898C20.9601 25.6031 20.9097 25.612 20.8894 25.5689C20.8768 25.5369 20.8783 25.5027 20.875 25.4689C20.8741 25.4094 20.8597 25.3511 20.8561 25.2918C20.8528 25.2187 20.8401 25.146 20.8354 25.0731C20.8348 25.0427 20.8305 24.9931 20.7874 25.0023ZM20.7456 25.5523L20.7665 25.5545L20.7688 25.5794L20.7708 25.6043L20.7437 25.6127C20.7348 25.6153 20.7257 25.6174 20.7165 25.6189C20.7165 25.6189 20.7108 25.6154 20.7041 25.6105C20.6894 25.6 20.693 25.5849 20.7123 25.5647C20.7234 25.5536 20.7283 25.5514 20.7456 25.5523ZM18.7481 24.9336C18.7228 24.9425 18.6905 24.9798 18.6648 24.9794C18.6061 24.9836 18.6143 25.0407 18.6565 25.0607C18.6619 25.078 18.6568 25.0998 18.6585 25.1189C18.6668 25.1716 18.6334 25.214 18.6397 25.2669C18.6368 25.3249 18.6192 25.3814 18.6168 25.4398C18.6003 25.5 18.6001 25.562 18.5897 25.6231C18.583 25.678 18.543 25.6587 18.5085 25.644C18.5083 25.6203 18.5068 25.5969 18.5063 25.5731C18.5208 25.5187 18.477 25.5027 18.4334 25.496C18.3879 25.5005 18.3654 25.4611 18.3752 25.4211C18.3948 25.3978 18.4441 25.4043 18.4752 25.4003C18.5405 25.4138 18.5379 25.3263 18.5043 25.296C18.4814 25.2538 18.4243 25.2356 18.4085 25.192C18.415 25.1343 18.3765 25.0765 18.3294 25.0483C18.2568 25.0431 18.2019 25.1058 18.1752 25.1669C18.145 25.1758 18.115 25.1847 18.0856 25.196C18.0383 25.208 17.971 25.2898 18.0356 25.3211C18.0719 25.3311 18.1823 25.3563 18.1334 25.4065C18.1061 25.4536 18.0534 25.4545 18.0063 25.442C17.9581 25.442 17.9045 25.4185 17.9063 25.3627C17.8965 25.3127 17.8981 25.2589 17.8752 25.2127C17.8652 25.1569 17.8019 25.1698 17.7981 25.2211C17.7492 25.2567 17.7559 25.3145 17.7899 25.3567C17.811 25.4051 17.7899 25.4616 17.769 25.5065C17.7561 25.5649 17.6919 25.5669 17.6461 25.5856C17.6234 25.5945 17.5374 25.5805 17.569 25.6294C17.6192 25.6471 17.6792 25.6631 17.7314 25.6503C17.7863 25.6436 17.8339 25.6058 17.8605 25.5587C17.8974 25.5214 17.9605 25.5409 18.0085 25.5398C18.0601 25.5398 18.1128 25.576 18.1628 25.5523C18.1772 25.5147 18.2441 25.4527 18.2648 25.5169C18.2612 25.5745 18.3121 25.6054 18.3648 25.5983C18.4225 25.5949 18.401 25.6389 18.4003 25.6731C18.4041 25.7354 18.4441 25.7683 18.4959 25.794C18.5136 25.7987 18.5323 25.7971 18.5501 25.794C18.6001 25.7785 18.6536 25.7563 18.669 25.7003C18.689 25.6549 18.6897 25.6036 18.7045 25.5565C18.7161 25.4811 18.7312 25.4058 18.7334 25.3294C18.7519 25.2603 18.7468 25.1871 18.7605 25.1169C18.7694 25.0649 18.7761 25.0127 18.7814 24.9607C18.7752 24.9329 18.7632 24.9283 18.7481 24.9336ZM18.2961 25.2107C18.3061 25.2118 18.3117 25.2243 18.3128 25.2463C18.3137 25.2703 18.3265 25.29 18.3416 25.294C18.3541 25.2971 18.3528 25.31 18.3399 25.3189C18.3321 25.3243 18.3183 25.3274 18.2939 25.3274C18.2554 25.3271 18.2317 25.3171 18.2105 25.2963L18.1981 25.2836L18.2168 25.2711C18.2263 25.2638 18.2434 25.2489 18.2545 25.2378C18.2734 25.2185 18.2859 25.2094 18.2961 25.2107ZM22.6981 24.6856C22.6608 24.6874 22.6238 24.693 22.5876 24.7023C22.5183 24.6978 22.4834 24.7707 22.5501 24.8065C22.5901 24.9087 22.653 24.7854 22.7168 24.7938C22.8128 24.8125 22.8208 24.916 22.8356 24.9938C22.841 25.0711 22.8632 25.146 22.8857 25.2189C22.9497 25.29 22.8377 25.3349 22.7899 25.2794C22.749 25.2349 22.6616 25.1807 22.6128 25.2418C22.5525 25.2674 22.5499 25.3478 22.5001 25.3709C22.4197 25.3954 22.4094 25.2965 22.3668 25.2543C22.3276 25.1994 22.2528 25.1945 22.1919 25.1751C22.1632 25.1174 22.1781 25.0187 22.119 24.9794C22.0692 24.9996 21.9781 25.0927 22.0545 25.1356C22.1288 25.1996 22.0219 25.2289 21.9879 25.2731C21.939 25.3274 21.9312 25.402 21.9232 25.4709C21.8392 25.5176 21.8228 25.4185 21.8128 25.3565C21.8061 25.2823 21.7436 25.304 21.7001 25.3314C21.6368 25.3571 21.605 25.4174 21.5605 25.4647C21.5552 25.508 21.563 25.5551 21.5628 25.6003C21.5772 25.6543 21.6428 25.6289 21.6834 25.6251C21.7488 25.5978 21.7754 25.6669 21.723 25.7065C21.6874 25.7516 21.5752 25.728 21.5856 25.8003C21.6219 25.8045 21.6596 25.8031 21.6961 25.8003C21.7688 25.7803 21.8468 25.7291 21.8543 25.648C21.8639 25.5776 21.9654 25.5903 22.021 25.5751C22.0903 25.5551 22.1741 25.55 22.1899 25.6376C22.237 25.6874 22.3397 25.7434 22.3919 25.6754C22.417 25.6597 22.4373 25.6374 22.4506 25.6108C22.4638 25.5843 22.4694 25.5547 22.4668 25.5251C22.4561 25.4729 22.5514 25.4709 22.5752 25.5003C22.6099 25.5574 22.7185 25.5405 22.771 25.5085C22.8265 25.4674 22.8388 25.3949 22.919 25.3938C23.0376 25.3583 23.1612 25.3378 23.2772 25.2938C23.3712 25.2734 23.2632 25.214 23.2396 25.1794C23.1681 25.1438 23.1059 25.2887 23.0252 25.2169C22.963 25.1691 22.967 25.0785 22.9439 25.0085C22.9281 24.918 22.9321 24.8136 22.8668 24.7418C22.8221 24.6943 22.7612 24.6827 22.6981 24.6856ZM22.2439 25.3167C22.2523 25.3167 22.2616 25.3207 22.2772 25.3294C22.3065 25.3454 22.3272 25.3723 22.3272 25.3938C22.3272 25.408 22.3237 25.4091 22.3023 25.4189C22.2918 25.4245 22.2806 25.4287 22.269 25.4314C22.2568 25.4314 22.2272 25.4076 22.2272 25.398C22.2256 25.3874 22.2228 25.377 22.219 25.3669C22.211 25.3454 22.2123 25.3458 22.2232 25.3314C22.2299 25.3223 22.2357 25.3169 22.2439 25.3167ZM22.6794 25.3398C22.7041 25.338 22.719 25.3458 22.7294 25.3647C22.7414 25.3867 22.7332 25.4036 22.7023 25.4169C22.6929 25.4214 22.6831 25.4249 22.673 25.4274C22.671 25.4271 22.6599 25.4205 22.6481 25.4127C22.6301 25.4009 22.6274 25.3949 22.6272 25.3816C22.6272 25.3605 22.6505 25.3416 22.6794 25.3398ZM22.0834 25.346C22.0908 25.3449 22.0974 25.3487 22.1063 25.3565C22.1183 25.3667 22.1223 25.3749 22.1252 25.396C22.1271 25.4098 22.1271 25.4238 22.1252 25.4376C22.1219 25.4527 22.1216 25.452 22.0876 25.4523C22.045 25.4527 22.041 25.4478 22.0419 25.4085C22.0423 25.3834 22.0425 25.3767 22.0563 25.3627C22.0672 25.3518 22.0763 25.3471 22.0834 25.346ZM21.7168 25.4418C21.7301 25.4449 21.7428 25.4551 21.7461 25.4709C21.7505 25.4923 21.7465 25.5018 21.7294 25.5105C21.7145 25.518 21.6805 25.5207 21.671 25.5149C21.666 25.5117 21.6617 25.5073 21.6585 25.5023C21.6541 25.4943 21.6548 25.4903 21.6608 25.4856C21.6645 25.4823 21.669 25.4776 21.669 25.4751C21.669 25.4729 21.6734 25.4643 21.6794 25.4565C21.6835 25.4506 21.6892 25.4461 21.6959 25.4435C21.7025 25.4409 21.7098 25.4403 21.7168 25.4418ZM22.3334 25.5209C22.3454 25.5209 22.3554 25.5251 22.3628 25.5314C22.375 25.5423 22.3745 25.558 22.3605 25.5689C22.3516 25.5758 22.3025 25.5751 22.2856 25.5689C22.2781 25.566 22.2752 25.5623 22.2752 25.5543C22.2752 25.5449 22.2777 25.5391 22.2939 25.5314C22.3062 25.5251 22.3197 25.5216 22.3334 25.5209ZM21.1888 25.8423C21.1823 25.838 21.173 25.8345 21.1825 25.8276C21.1939 25.8074 21.217 25.8003 21.2374 25.7929C21.274 25.7765 21.3055 25.7507 21.329 25.7183C21.3323 25.696 21.3572 25.684 21.3572 25.6609C21.3572 25.6291 21.3592 25.5967 21.3514 25.5658C21.3418 25.538 21.3222 25.5149 21.2963 25.5009C21.2792 25.4876 21.2514 25.4836 21.2452 25.4598C21.2416 25.4371 21.2621 25.4198 21.2692 25.3994C21.2841 25.3711 21.2965 25.3416 21.3125 25.3143C21.3299 25.2951 21.3565 25.3131 21.3654 25.3318C21.3785 25.3501 21.3886 25.3702 21.3954 25.3916C21.4154 25.4138 21.4334 25.4396 21.4408 25.4691C21.4505 25.4898 21.4663 25.5091 21.4652 25.5336C21.4652 25.5611 21.481 25.586 21.4801 25.6138C21.481 25.6511 21.481 25.6903 21.4672 25.7256C21.4579 25.7451 21.4392 25.7567 21.4268 25.7745C21.4061 25.7952 21.3816 25.8118 21.3548 25.8234C21.3357 25.8296 21.3243 25.8518 21.3003 25.8465C21.2659 25.8469 21.2312 25.8516 21.197 25.846C21.1992 25.8498 21.1868 25.84 21.1888 25.8423ZM20.7321 25.8723C20.7159 25.8556 20.7123 25.8485 20.7121 25.8323C20.7121 25.8158 20.7152 25.8091 20.731 25.7931C20.7603 25.7636 20.7745 25.7629 20.825 25.7885C20.8732 25.8129 20.8894 25.8151 20.8939 25.7978C20.8979 25.7811 20.9256 25.7658 20.9521 25.7658C20.9688 25.7658 20.9781 25.7689 20.9917 25.7791C21.0083 25.7925 21.0092 25.7945 21.0094 25.8247C21.0099 25.8556 21.0094 25.8567 20.9901 25.8736C20.9716 25.89 20.9688 25.8909 20.9457 25.8887C20.9168 25.8858 20.899 25.8725 20.8945 25.8494C20.891 25.8327 20.8852 25.8287 20.8808 25.84C20.8794 25.8438 20.8721 25.8483 20.8648 25.85C20.845 25.8573 20.827 25.8687 20.8119 25.8834C20.8057 25.8894 20.7948 25.892 20.7772 25.8923C20.7536 25.8923 20.7503 25.8909 20.7321 25.8723ZM19.4108 25.2789C19.3663 25.2794 19.3188 25.3167 19.313 25.3603C19.323 25.4103 19.3645 25.4594 19.3379 25.5123C19.3563 25.5798 19.287 25.6056 19.2401 25.5665C19.2114 25.5016 19.197 25.4307 19.1545 25.3727C19.101 25.3576 19.0777 25.4431 19.0399 25.4727C19.0585 25.5229 19.113 25.5683 19.119 25.6309C19.1321 25.692 19.095 25.7598 19.0421 25.7914C18.9963 25.8351 18.9337 25.8194 18.8774 25.8289C18.8092 25.8689 18.9276 25.8834 18.9588 25.8851C19.0285 25.8923 19.101 25.8829 19.1523 25.8309C19.2036 25.8065 19.1996 25.7178 19.2608 25.708C19.3665 25.7034 19.4717 25.7243 19.5774 25.7269C19.6341 25.7403 19.7216 25.7203 19.7608 25.7623C19.7608 25.836 19.8234 25.8816 19.8837 25.9103C19.917 25.9194 19.9519 25.8783 19.9859 25.8705C20.0503 25.85 20.0305 25.7705 20.069 25.7394C20.1792 25.7334 20.2901 25.7347 20.4003 25.7331C20.4212 25.7336 20.4274 25.7038 20.4421 25.6914C20.4397 25.6489 20.4381 25.6065 20.4316 25.5643C20.4103 25.5105 20.435 25.4414 20.3961 25.3956C20.3408 25.3805 20.2939 25.4311 20.2379 25.4351C20.1761 25.4627 20.1241 25.5196 20.1212 25.5894C20.0845 25.6491 20.0261 25.5787 20.0461 25.5289C20.0439 25.5071 20.0508 25.482 20.0441 25.4623C20.0103 25.4218 19.9512 25.4349 19.9045 25.4289C19.8365 25.4316 19.7703 25.4169 19.7023 25.4185C19.643 25.414 19.581 25.4236 19.5232 25.408C19.4543 25.406 19.4639 25.3389 19.4523 25.2914C19.4402 25.2828 19.4256 25.2784 19.4108 25.2789ZM19.5441 25.5247C19.567 25.5251 19.5885 25.5283 19.6108 25.5309C19.6397 25.5358 19.6701 25.5211 19.6983 25.5309C19.7634 25.542 19.8285 25.5394 19.8941 25.5456C19.9114 25.5454 19.9239 25.5578 19.9359 25.5685V25.706C19.9337 25.7231 19.9408 25.746 19.9254 25.758C19.9205 25.7619 19.9148 25.7648 19.9088 25.7665C19.8992 25.7643 19.8903 25.7602 19.8824 25.7545C19.8745 25.7488 19.8678 25.7415 19.8628 25.7331C19.8601 25.7094 19.8641 25.6863 19.865 25.6623C19.8645 25.656 19.8677 25.6465 19.865 25.6414C19.8511 25.6309 19.8343 25.6251 19.817 25.6247C19.7603 25.6229 19.705 25.6187 19.6481 25.6165C19.6012 25.6134 19.5525 25.6205 19.5065 25.608C19.4888 25.6016 19.4654 25.6038 19.4545 25.5851C19.439 25.5669 19.4614 25.5454 19.4774 25.5371C19.4984 25.528 19.5212 25.5238 19.5441 25.5247ZM20.2961 25.5414C20.3068 25.5414 20.3101 25.5447 20.315 25.5643C20.3179 25.5769 20.3216 25.5923 20.3232 25.5976C20.3256 25.6056 20.3219 25.608 20.3108 25.6123C20.2779 25.6247 20.245 25.6234 20.2336 25.608C20.2285 25.6011 20.2345 25.5791 20.2441 25.5707C20.2634 25.5534 20.2848 25.5414 20.2961 25.5414Z" fill="#C09300"/>
<path fill-rule="evenodd" clip-rule="evenodd" d="M19.9987 21.7714C22.1749 20.0976 21.9882 17.6459 21.9882 17.6459C21.9325 17.6573 21.8758 17.6631 21.8189 17.6632C21.3624 17.6632 20.2735 17.4019 20.0195 17.0703C19.7475 17.3703 18.6351 17.6632 18.1813 17.6632C18.124 17.6632 18.0664 17.6574 18.012 17.6459C18.012 17.6459 17.8224 20.0976 19.9987 21.7714Z" fill="white"/>
<path fill-rule="evenodd" clip-rule="evenodd" d="M21.2277 20.4913C21.5762 19.9424 21.8175 19.3324 21.9388 18.6935C22.0172 18.2869 22.0386 17.9389 22.0281 17.6818C22.0275 17.6624 22.0228 17.5991 22.0228 17.5991C22.0228 17.5991 21.8726 17.624 21.8183 17.624C21.2699 17.624 20.2646 17.3267 20.0497 17.0462L20.0217 17.0098L19.9908 17.0438C19.753 17.306 18.6937 17.624 18.181 17.624C18.1259 17.624 17.9768 17.5987 17.9768 17.5987C17.9768 17.5987 17.9721 17.6631 17.9712 17.6827C17.9608 17.9407 17.9819 18.2893 18.0601 18.6955C18.1809 19.3337 18.4216 19.9431 18.7695 20.4915C19.0799 20.9791 19.4788 21.4193 19.975 21.8011H20.0217C20.5179 21.4193 20.917 20.9789 21.2277 20.4913ZM19.9983 21.7322C19.539 21.3582 19.0972 20.8635 18.8341 20.4502C18.4915 19.91 18.2544 19.3097 18.1355 18.6811C18.0583 18.2809 18.0377 17.9382 18.0479 17.6858C18.0877 17.7007 18.1206 17.7007 18.1812 17.7007C18.713 17.7007 19.7559 17.4167 20.0141 17.1229C20.2886 17.4167 21.267 17.7007 21.8186 17.7007C21.8777 17.7007 21.9517 17.6849 21.9517 17.6849C21.9617 17.9364 21.9408 18.2787 21.8635 18.6789C21.744 19.3082 21.5063 19.9092 21.163 20.45C20.857 20.9304 20.4641 21.3582 19.9983 21.7322ZM21.7579 17.796C21.257 17.796 20.3528 17.5478 20.0328 17.2729L20.0141 17.2567L19.9943 17.2715C19.6499 17.5327 18.7066 17.796 18.241 17.796C18.2255 17.796 18.209 17.7942 18.1899 17.7907L18.1543 17.784L18.1539 17.8204C18.1536 17.9133 18.1569 18.0062 18.1637 18.0989C18.185 18.4233 18.2417 18.7531 18.3303 19.0751C18.6055 20.072 19.1683 20.9222 19.9792 21.568L19.9981 21.5831L20.017 21.568C20.8283 20.9218 21.3919 20.0707 21.6675 19.0731C21.7563 18.7511 21.8135 18.4213 21.835 18.0969C21.8419 17.9911 21.8455 17.9053 21.8448 17.8244V17.7907C21.8448 17.7907 21.7761 17.796 21.7579 17.796Z" fill="#C09300"/>
<path fill-rule="evenodd" clip-rule="evenodd" d="M19.293 20.8088C19.5012 21.0622 19.7374 21.2955 20.0007 21.507C20.2432 21.3117 20.4666 21.0937 20.6676 20.8559V17.6524C20.3994 17.5635 20.1581 17.4528 20.013 17.3359C19.8565 17.459 19.5867 17.575 19.293 17.6664V20.8088Z" fill="white"/>
<path fill-rule="evenodd" clip-rule="evenodd" d="M21.0176 16.7377C21.1169 16.7583 21.2174 16.7721 21.3185 16.7791L21.5467 16.7939L21.3374 16.7015C21.089 16.5917 20.8294 15.7126 20.8596 15.0257C20.8845 14.4131 20.797 14.0555 20.6414 13.8999C20.5078 13.7666 20.0858 13.6393 19.7707 13.6215C19.6823 13.6171 19.6256 13.6497 19.603 13.7071C19.593 13.7326 19.5936 13.7304 19.5936 13.7304C19.2738 13.6539 19.017 13.6473 18.8885 13.7328C18.8187 13.7795 18.773 13.9019 18.7592 14.0357C18.7534 14.0939 18.755 14.1464 18.765 14.1819C18.7807 14.2386 18.8276 14.2659 18.8763 14.2271C19.0456 14.0915 19.2076 14.1657 19.3665 14.3959C19.4803 14.5604 19.461 15.0448 19.301 15.5742C19.2396 15.7777 19.1372 15.9955 19.005 16.2186C18.8965 16.4007 18.7761 16.5754 18.6445 16.7415L18.5898 16.8079H18.6758C18.7358 16.8079 18.8025 16.7968 18.8752 16.7762C18.9556 16.7525 19.034 16.7225 19.1096 16.6864C19.1656 16.6602 19.2494 16.6146 19.2494 16.6146L19.1827 16.8911L19.1627 16.9739L19.2396 16.9373C19.3096 16.9039 19.3796 16.8644 19.4487 16.8202C19.5272 16.7699 19.6005 16.7164 19.667 16.6628C19.6903 16.6439 19.7243 16.6177 19.7243 16.6177L19.9612 16.8686L19.9941 16.9031L20.023 16.8651C20.0403 16.8422 20.1141 16.7588 20.1285 16.7437C20.1627 16.7082 20.1992 16.6715 20.2358 16.6366C20.2578 16.6155 20.2581 16.6177 20.2581 16.6177L20.2767 16.6339C20.3156 16.6671 20.3607 16.6999 20.4114 16.7306C20.5336 16.8048 20.6692 16.8544 20.8154 16.8679C20.8683 16.8711 20.8765 16.8331 20.8687 16.7846C20.8629 16.7542 20.8545 16.7243 20.8438 16.6953C20.8403 16.6853 20.8816 16.7091 21.0176 16.7375V16.7377Z" fill="white"/>
<path fill-rule="evenodd" clip-rule="evenodd" d="M19.2812 16.5026C19.247 16.5222 19.1234 16.5904 19.0752 16.6128C19.0035 16.6471 18.9292 16.6756 18.853 16.6982C18.7872 16.7168 18.7647 16.7195 18.7647 16.7195C18.7647 16.7195 18.8021 16.6699 18.8225 16.6424C18.9125 16.5189 18.9967 16.3913 19.0747 16.2599C19.2101 16.0317 19.3152 15.8082 19.3785 15.5977C19.5121 15.1559 19.5518 14.7437 19.4941 14.4988C19.5012 14.4906 19.5096 14.4817 19.5203 14.4726C19.5647 14.4335 19.7503 14.4753 19.7503 14.4753C19.4992 14.0464 19.2143 13.9446 19.089 13.9524C18.973 13.9582 18.9012 14.0802 18.8696 14.1491C18.8596 14.1575 18.8496 14.1668 18.8401 14.1768C18.8401 14.1768 18.835 14.0928 18.8401 14.0439C18.8457 13.9774 18.8634 13.9124 18.8923 13.8522C18.9316 13.8271 18.9901 13.8026 19.0736 13.7957C19.267 13.7826 19.3245 13.8113 19.4736 13.9291C19.6225 14.0468 19.7401 14.1042 19.8132 14.0913C19.8367 14.0884 19.8498 14.1304 19.8732 14.1591C19.8916 14.1799 19.8865 14.1982 19.957 14.1982C20.0014 14.1982 20.025 14.1119 20.0536 14.0884C20.0903 14.0595 20.1581 14.0466 20.2025 14.0362C20.2967 14.0126 20.3412 14.0153 20.4118 14.0073C20.4458 14.0035 20.5632 13.9995 20.6454 14.0391C20.7438 14.2088 20.7987 14.5257 20.7787 15.0222C20.747 15.7395 20.9805 16.4977 21.1898 16.6844C21.1377 16.6776 21.0858 16.6689 21.0343 16.6582C20.919 16.6339 20.8334 16.6024 20.7936 16.5664C20.7094 16.4426 20.6405 16.2293 20.5863 15.9535C20.5534 15.7819 20.5281 15.6089 20.5105 15.4351C20.5023 15.3567 20.4955 15.2781 20.4901 15.1995L20.4056 15.2046L20.4103 15.2708C20.4143 15.3231 20.4196 15.3813 20.4263 15.4439C20.445 15.6231 20.4703 15.8022 20.5032 15.9697C20.5594 16.2562 20.6316 16.4784 20.7238 16.6139L20.7247 16.6133L20.7892 16.7833C20.6701 16.7661 20.5559 16.7244 20.4536 16.6611C20.4099 16.6347 20.3683 16.605 20.3292 16.5722C20.3172 16.5615 20.3056 16.5505 20.2943 16.5391C20.2685 16.4539 20.2494 16.2102 20.2381 15.8653C20.2303 15.6243 20.2264 15.3832 20.2263 15.1422H20.1414C20.1413 15.2177 20.1418 15.2933 20.143 15.3688C20.145 15.5391 20.1483 15.7093 20.1534 15.8679C20.1645 16.2066 20.1823 16.4442 20.2094 16.5502C20.1465 16.6089 20.0858 16.67 20.0274 16.7333C20.0138 16.7481 20.0006 16.7633 19.9878 16.7788L19.7747 16.5553C19.8421 16.4166 19.8958 16.1873 19.9392 15.8897C19.9645 15.7168 19.9845 15.5317 20.0001 15.3466C20.0068 15.2644 20.0126 15.1821 20.0174 15.0997L19.933 15.0953L19.9287 15.1624C19.9128 15.4016 19.8884 15.6401 19.8554 15.8775C19.8114 16.1802 19.7558 16.4104 19.6901 16.5353C19.6656 16.5571 19.6409 16.5786 19.6158 16.5997C19.5516 16.6515 19.4807 16.7033 19.405 16.7517C19.3383 16.7944 19.2827 16.8222 19.2827 16.8222L19.3472 16.5559C19.4556 16.4315 19.5496 16.1968 19.6327 15.8808C19.6953 15.6339 19.7451 15.384 19.7818 15.1319L19.6978 15.1204C19.6963 15.1319 19.6934 15.1535 19.6885 15.1837C19.6533 15.4109 19.6073 15.6364 19.5507 15.8593C19.4703 16.1655 19.3792 16.3924 19.2812 16.5026ZM21.0176 16.7377C21.1169 16.7583 21.2174 16.7721 21.3185 16.7791L21.5467 16.7939L21.3374 16.7015C21.089 16.5917 20.8294 15.7126 20.8596 15.0257C20.8845 14.4131 20.797 14.0555 20.6414 13.8999C20.5078 13.7666 20.0858 13.6393 19.7707 13.6215C19.6823 13.6171 19.6256 13.6497 19.603 13.7071C19.593 13.7326 19.5936 13.7304 19.5936 13.7304C19.2738 13.6539 19.017 13.6473 18.8885 13.7328C18.8187 13.7795 18.773 13.9019 18.7592 14.0357C18.7534 14.0939 18.755 14.1464 18.765 14.1819C18.7807 14.2386 18.8276 14.2659 18.8763 14.2271C19.0456 14.0915 19.2076 14.1657 19.3665 14.3959C19.4803 14.5604 19.461 15.0448 19.301 15.5742C19.2396 15.7777 19.1372 15.9955 19.005 16.2186C18.8965 16.4007 18.7761 16.5754 18.6445 16.7415L18.5898 16.8079H18.6758C18.7358 16.8079 18.8025 16.7968 18.8752 16.7762C18.9556 16.7525 19.034 16.7225 19.1096 16.6864C19.1656 16.6602 19.2494 16.6146 19.2494 16.6146L19.1827 16.8911L19.1627 16.9739L19.2396 16.9373C19.3096 16.9039 19.3796 16.8644 19.4487 16.8202C19.5272 16.7699 19.6005 16.7164 19.667 16.6628C19.6903 16.6439 19.7243 16.6177 19.7243 16.6177L19.9612 16.8686L19.9941 16.9031L20.023 16.8651C20.0403 16.8422 20.1141 16.7588 20.1285 16.7437C20.1627 16.7082 20.1992 16.6715 20.2358 16.6366C20.2578 16.6155 20.2581 16.6177 20.2581 16.6177L20.2767 16.6339C20.3156 16.6671 20.3607 16.6999 20.4114 16.7306C20.5336 16.8048 20.6692 16.8544 20.8154 16.8679C20.8683 16.8711 20.8765 16.8331 20.8687 16.7846C20.8629 16.7542 20.8545 16.7243 20.8438 16.6953C20.8403 16.6853 20.8816 16.7091 21.0176 16.7375V16.7377Z" fill="#C09300"/>
<path d="M19.9183 14.0788C19.9616 14.0788 19.9967 14.0436 19.9967 14.0003C19.9967 13.957 19.9616 13.9219 19.9183 13.9219C19.875 13.9219 19.8398 13.957 19.8398 14.0003C19.8398 14.0436 19.875 14.0788 19.9183 14.0788Z" fill="white"/>
</g>
<defs>
<clipPath id="clip0_513_7318">
<rect width="40" height="40" fill="white"/>
</clipPath>
</defs>
</svg>
