<svg width="73" height="56" viewBox="0 0 73 56" fill="none" xmlns="http://www.w3.org/2000/svg">
<path d="M0 20C0 10.5719 0 5.85786 2.92893 2.92893C5.85786 0 10.5719 0 20 0H53C62.4281 0 67.1421 0 70.0711 2.92893C73 5.85786 73 10.5719 73 20V34.2242C73 41.2296 73 44.7323 70.8781 47.4465C68.7561 50.1606 65.5787 50.9505 59.224 52.5304C52.0948 54.3029 43.4531 56 36.5 56C29.5469 56 20.9052 54.3029 13.776 52.5304C7.42128 50.9505 4.2439 50.1606 2.12195 47.4465C0 44.7323 0 41.2296 0 34.2242V20Z" fill="#2B3085"/>
</svg>
