<svg width="40" height="40" viewBox="0 0 40 40" fill="none" xmlns="http://www.w3.org/2000/svg">
<g clip-path="url(#clip0_513_7379)">
<path d="M0.0896314 21.8706H39.9109V21.8712H0.0896314V21.8706ZM2.1637 10.9526H37.8353V10.9532H2.1637V10.9526ZM0.745184 14.5914H39.2524V14.592H0.745184V14.5914ZM8.59543 36.4265H31.4038L31.405 36.4252H8.59416L8.59543 36.4265ZM19.9993 0C19.6065 0 19.2168 0.0141869 18.8299 0.0363117H21.169C20.7818 0.0141869 20.3922 0 19.9993 0ZM0.0820312 18.231H39.9159V18.2316H0.0820312V18.231Z" fill="#C42126"/>
<path d="M25.9095 7.31404H35.4596C34.3252 5.9331 33.0069 4.71066 31.5463 3.67578H24.375C24.9684 4.71978 25.4787 5.95168 25.9095 7.31404Z" fill="#E7E7E7"/>
<path d="M24.3776 3.6763H31.5489C28.5843 1.57537 25.025 0.259708 21.1705 0.0371094H20.5547C22.3689 0.265451 23.2022 1.60814 24.3776 3.6763Z" fill="#DC3027"/>
<path d="M39.2532 14.5914C38.901 13.335 38.4259 12.1164 37.8347 10.9531H26.8477C27.0703 12.1213 27.2459 13.3414 27.3759 14.5914H39.2532Z" fill="#E7E7E7"/>
<path d="M26.2308 10.9533H37.8355C37.1742 9.65259 36.3798 8.43201 35.4614 7.31445H25.3242C25.6817 8.44594 25.9852 9.66652 26.2308 10.9533Z" fill="#DC3027"/>
<path d="M27.7969 21.869H39.909C39.9665 21.2535 39.999 20.6298 39.999 19.9995C39.999 19.403 39.9678 18.8141 39.9166 18.2305H27.7997C27.8393 19.443 27.8384 20.6565 27.7969 21.869Z" fill="#E7E7E7"/>
<path d="M39.9182 18.2301C39.8103 16.9994 39.5882 15.7814 39.2547 14.5918H26.8672C26.9916 15.7832 27.0737 17.0022 27.1139 18.2301H39.9182Z" fill="#DC3027"/>
<path d="M26.6406 29.1486H37.7843C38.3837 27.9862 38.8666 26.7673 39.2262 25.5098H27.1794C27.0467 26.7616 26.8667 27.9815 26.6406 29.1486Z" fill="#E7E7E7"/>
<path d="M39.2274 25.5094C39.5683 24.3205 39.7975 23.1025 39.912 21.8711H27.4222C27.3795 23.0999 27.2949 24.3185 27.168 25.5094H39.2274Z" fill="#DC3027"/>
<path d="M31.4058 36.4254C32.8875 35.3946 34.2245 34.1709 35.3769 32.7871H25.9932C25.5546 34.1551 25.0338 35.3851 24.4297 36.4254H31.4058Z" fill="#E7E7E7"/>
<path d="M25.6384 32.7873H35.3751C36.3042 31.671 37.1107 30.4504 37.7818 29.1484H26.5564C26.3073 30.4362 26.0006 31.6573 25.6384 32.7873ZM19.2736 39.9864C19.2332 39.9851 19.1928 39.9832 19.1523 39.982C19.1928 39.9832 19.2332 39.9851 19.2736 39.9864ZM19.9984 40.0006C24.2385 40.0006 28.1673 38.677 31.4029 36.4271H24.1646C22.8799 38.6404 22.0324 40.0006 19.9984 40.0006Z" fill="#DC3027"/>
<path d="M19.9982 40.0005C19.7553 40.0005 19.514 39.9949 19.2734 39.9863C19.5166 39.9945 19.7581 40.0005 19.9982 40.0005Z" fill="#C42126"/>
<path d="M25.0393 3.67578H8.4527C6.99187 4.71066 5.67376 5.93301 4.53906 7.31404H26.5734C26.1426 5.95168 25.6327 4.71978 25.0393 3.67578Z" fill="#F3F4F5"/>
<path d="M8.45312 3.6763H25.0397C23.864 1.60814 22.3688 0.265451 20.5545 0.0371094H18.8312C14.9767 0.259708 11.4174 1.57537 8.45312 3.6763Z" fill="#E73625"/>
<path d="M0.746094 14.5914H28.0077C27.8776 13.3412 27.702 12.1213 27.4794 10.9531H2.16461C1.57343 12.1163 1.09829 13.335 0.746094 14.5914Z" fill="#F3F4F5"/>
<path d="M4.53783 7.31445C3.62016 8.43201 2.82502 9.6525 2.16406 10.9533H27.4785C27.2331 9.66677 26.9297 8.44628 26.5722 7.31445H4.53783Z" fill="#E73625"/>
<path d="M0 20.0012C0 20.6315 0.0328494 21.2552 0.0900191 21.8707H28.2519C28.2936 20.6612 28.2942 19.4425 28.2548 18.2324H0.082419C0.0312449 18.8158 0 19.4047 0 20.0012Z" fill="#F3F4F5"/>
<path d="M0.0820312 18.2301H28.2541C28.2149 17.0148 28.1326 15.8012 28.0074 14.5918H0.745184C0.411649 15.7813 0.18964 16.9993 0.0820312 18.2301Z" fill="#E73625"/>
<path d="M27.9965 25.5078H0.773438C1.13305 26.7653 1.61603 27.9842 2.21535 29.1467H27.4578C27.6839 27.9798 27.8635 26.7599 27.9965 25.5078Z" fill="#F3F4F5"/>
<path d="M0.774445 25.5094H27.9976C28.1242 24.3185 28.2091 23.0995 28.2517 21.8711H0.0898438C0.204499 23.1025 0.433691 24.3205 0.774445 25.5094Z" fill="#E73625"/>
<path d="M8.59606 36.4254H24.9793C25.5834 35.3848 26.1045 34.1551 26.5428 32.7871H4.625C5.77954 34.1725 7.11521 35.3962 8.59606 36.4254Z" fill="#F3F4F5"/>
<path d="M2.21875 29.1484C2.88984 30.4504 3.6963 31.671 4.62537 32.7873H26.5432C26.9051 31.6574 27.2117 30.4362 27.4609 29.1484H2.21875ZM19.1555 39.982C19.196 39.9832 19.2363 39.9851 19.2768 39.9864C19.5175 39.9949 19.7587 40.0006 20.0015 40.0006C22.0356 40.0006 23.6941 38.6405 24.979 36.4271H8.5977C11.6164 38.5266 15.2398 39.8187 19.1555 39.982Z" fill="#E73625"/>
<path d="M19.5872 0.00976562C9.33832 0.218262 0.984947 8.13159 0.0859375 18.1974H19.5876V0.00976562H19.5872Z" fill="#283991"/>
<path d="M4.00064 11.3322L4.30532 12.2704H5.29249L4.49389 12.8506L4.79891 13.7894L4.00064 13.209L3.20263 13.7894L3.50706 12.8506L2.70871 12.2704H3.69588L4.00064 11.3322ZM4.00064 14.6468L4.30532 15.5856H5.29249L4.49389 16.1657L4.79891 17.1046L4.00064 16.5241L3.20263 17.1046L3.50706 16.1657L2.70871 15.5856H3.69588L4.00064 14.6468ZM7.31581 6.35914L7.62058 7.29767H8.60741L7.80906 7.87815L8.11383 8.81634L7.31581 8.23654L6.51746 8.81634L6.82223 7.87815L6.02354 7.29767H7.01071L7.31581 6.35914ZM7.31581 9.67431L7.62058 10.6128H8.60741L7.80906 11.1926L8.11383 12.1315L7.31581 11.5517L6.51746 12.1315L6.82223 11.1926L6.02354 10.6128H7.01071L7.31581 9.67431ZM7.31581 12.9895L7.62058 13.9283H8.60741L7.80906 14.5078L8.11383 15.4467L7.31581 14.8663L6.51746 15.4467L6.82223 14.5078L6.02354 13.9283H7.01071L7.31581 12.9895ZM1.48374 15.4467L1.17872 14.5078L1.97707 13.928H0.990489L0.968364 13.8595C0.86017 14.1958 0.761303 14.535 0.671875 14.8767L0.685809 14.8663L1.48374 15.4467ZM3.20263 10.4743L4.00064 9.89387L4.79899 10.4743L4.49397 9.53539L5.29232 8.955H4.30515L4.00039 8.01681L3.69562 8.955H3.33183C3.26428 9.05735 3.19891 9.16029 3.13322 9.26416L3.50714 9.53539L3.20263 10.4743ZM7.31581 4.92136L8.11383 5.50117L7.80906 4.56298L8.60707 3.98258H8.03707C7.55319 4.34414 7.08605 4.72758 6.63712 5.13172L6.51679 5.50117L7.31581 4.92136ZM9.83263 3.84392L10.631 3.26353L11.429 3.84392L11.1242 2.90505L11.9222 2.32525H10.9354L10.894 2.19892C10.5596 2.36975 10.2287 2.54751 9.90526 2.73667L10.1371 2.90497L9.83263 3.84392ZM10.631 4.70189L10.9357 5.63983H11.9226L11.1242 6.22022L11.429 7.15909L10.631 6.57861L9.83263 7.15909L10.1374 6.22022L9.3388 5.63983H10.3259L10.631 4.70189ZM10.631 8.01706L10.9357 8.955H11.9226L11.1242 9.53539L11.429 10.4743L10.631 9.89378L9.83263 10.4743L10.1374 9.53539L9.3388 8.955H10.3259L10.631 8.01706ZM10.631 11.3322L10.9357 12.2704H11.9226L11.1242 12.8506L11.429 13.7894L10.631 13.209L9.83263 13.7894L10.1374 12.8506L9.3388 12.2704H10.3259L10.631 11.3322ZM10.631 14.6468L10.9357 15.5856H11.9226L11.1242 16.1657L11.429 17.1046L10.631 16.5241L9.83263 17.1046L10.1374 16.1657L9.3388 15.5856H10.3259L10.631 14.6468ZM13.9462 3.04397L14.2509 3.9825H15.2378L14.4397 4.56298L14.7442 5.50117L13.9462 4.92136L13.1476 5.50117L13.4526 4.56298L12.654 3.9825H13.6411L13.9462 3.04397ZM13.9462 6.35914L14.2509 7.29767H15.2378L14.4397 7.87815L14.7442 8.81634L13.9462 8.23654L13.1476 8.81634L13.4526 7.87815L12.654 7.29767H13.6411L13.9462 6.35914ZM13.9462 9.67431L14.2509 10.6128H15.2378L14.4397 11.1926L14.7442 12.1315L13.9462 11.5517L13.1476 12.1315L13.4526 11.1926L12.654 10.6128H13.6411L13.9462 9.67431ZM13.9462 12.9895L14.2509 13.9283H15.2378L14.4397 14.5078L14.7442 15.4467L13.9462 14.8663L13.1476 15.4467L13.4526 14.5078L12.654 13.9283H13.6411L13.9462 12.9895ZM17.2613 1.38672L17.5661 2.32525H18.5529L17.7546 2.90505L18.0593 3.84392L17.2613 3.26344L16.4627 3.84392L16.7677 2.90505L15.9691 2.32525H16.956L17.2613 1.38672ZM17.2613 4.70189L17.5661 5.63983H18.5529L17.7546 6.22022L18.0593 7.15909L17.2613 6.57861L16.4627 7.15909L16.7677 6.22022L15.9691 5.63983H16.956L17.2613 4.70189ZM17.2613 8.01706L17.5661 8.955H18.5529L17.7546 9.53539L18.0593 10.4743L17.2613 9.89378L16.4627 10.4743L16.7677 9.53539L15.9691 8.955H16.956L17.2613 8.01706ZM17.2613 11.3322L17.5661 12.2704H18.5529L17.7546 12.8506L18.0593 13.7894L17.2613 13.209L16.4627 13.7894L16.7677 12.8506L15.9691 12.2704H16.956L17.2613 11.3322ZM17.2613 14.6468L17.5661 15.5856H18.5529L17.7546 16.1657L18.0593 17.1046L17.2613 16.5241L16.4627 17.1046L16.7677 16.1657L15.9691 15.5856H16.956L17.2613 14.6468Z" fill="#EFEFEF"/>
</g>
<defs>
<clipPath id="clip0_513_7379">
<rect width="40" height="40" fill="white"/>
</clipPath>
</defs>
</svg>
