<svg width="300" height="58" viewBox="0 0 300 58" fill="none" xmlns="http://www.w3.org/2000/svg">
<g clip-path="url(#clip0_614_6297)">
<path d="M33 7.57969C31.6978 5.96601 29.9637 4.75566 28 4.08969C25.4286 3.20353 22.7188 2.7869 20 2.85969H6C7.78099 2.9693 9.4529 3.75491 10.674 5.05597C11.8952 6.35704 12.5734 8.07533 12.57 9.85969V12.8597H17.57C18.7038 12.7536 19.8383 13.055 20.77 13.7097C21.0895 13.9814 21.3449 14.3204 21.5178 14.7026C21.6907 15.0847 21.7768 15.5003 21.77 15.9197C21.7891 16.5066 21.6473 17.0876 21.36 17.5997C21.0478 18.0704 20.5864 18.4226 20.05 18.5997C19.5667 18.7855 19.0571 18.8935 18.54 18.9197H20.64C22.7874 18.9046 24.928 19.1634 27.01 19.6897C28.2372 20.0001 29.4249 20.4497 30.55 21.0297C31.4781 20.486 32.2847 19.7577 32.92 18.8897C34.1602 17.0929 34.7815 14.941 34.69 12.7597C34.7209 10.8927 34.126 9.06917 33 7.57969Z" fill="white"/>
<path d="M36.8398 29.6299C36.9382 30.2485 36.9916 30.8735 36.9998 31.4999C37.0048 31.4467 37.0048 31.3931 36.9998 31.3399C36.9912 30.7666 36.9377 30.1948 36.8398 29.6299Z" fill="#2A336D"/>
<path d="M37.0011 31.5C37.0047 32.1357 36.9612 32.7707 36.8711 33.4C36.9593 32.8377 37.0028 32.2692 37.0011 31.7C37.0089 31.6336 37.0089 31.5664 37.0011 31.5Z" fill="#2A336D"/>
<path d="M36.84 29.6398C36.6831 28.397 36.3073 27.1917 35.73 26.0798C34.9123 24.4774 33.7097 23.103 32.23 22.0798C31.6911 21.7068 31.1264 21.3726 30.54 21.0798C29.4149 20.4998 28.2272 20.0502 27 19.7398C24.918 19.2136 22.7774 18.9548 20.63 18.9698H12.63V9.83984C12.6334 8.05548 11.9552 6.33719 10.734 5.03613C9.5129 3.73506 7.84099 2.94945 6.06 2.83984H0V44.1098H20.63C22.7774 44.1249 24.918 43.8661 27 43.3398C28.8705 42.8725 30.6419 42.0731 32.23 40.9798C33.7083 39.9551 34.9106 38.5811 35.73 36.9798C36.2971 35.8922 36.6726 34.715 36.84 33.4998C36.9448 32.8383 36.9983 32.1696 37 31.4998C36.9917 30.8768 36.9382 30.2552 36.84 29.6398ZM23.49 33.2398C23.2144 33.7564 22.7796 34.1702 22.25 34.4198C21.6187 34.6899 20.9363 34.8195 20.25 34.7998H12.43V28.1998H20C20.7427 28.1763 21.482 28.3092 22.17 28.5898C22.7083 28.8088 23.173 29.1764 23.51 29.6498C23.836 30.1481 24.0001 30.7348 23.98 31.3298C23.9816 31.9978 23.813 32.6552 23.49 33.2398Z" fill="#3EA3DC"/>
<path d="M43.6719 44.11V0.5H56.2819V44.11H43.6719Z" fill="#3EA3DC"/>
<path d="M99.72 12.5801L85.24 44.1001L79.4 57.6601H67.22L74.4 41.5701L60 12.5801H74.06L78.66 23.0701C79.15 24.1701 79.57 25.2101 79.93 26.1901C80.1 26.6601 80.24 27.1101 80.36 27.5501C80.65 26.7301 80.97 25.8101 81.36 24.7801L85.72 12.5801H99.72Z" fill="#3EA3DC"/>
<path d="M137.629 24.6598V44.0998H124.999V25.6598C125.023 24.9099 124.876 24.1643 124.569 23.4798C124.291 22.9025 123.835 22.4294 123.269 22.1298C122.633 21.8014 121.924 21.6397 121.209 21.6598C120.628 21.6504 120.05 21.7383 119.499 21.9198C119.001 22.0839 118.547 22.3572 118.169 22.7198C117.808 23.0513 117.512 23.4483 117.299 23.8898C117.085 24.3534 116.979 24.8594 116.989 25.3698V44.0998H104.379V12.5798H116.069L116.379 15.7698L116.469 15.6798C117.688 14.4887 119.133 13.5537 120.719 12.9298C122.402 12.2617 124.198 11.9223 126.009 11.9298C128.214 11.8622 130.399 12.3687 132.349 13.3998C134.093 14.3873 135.474 15.9086 136.289 17.7398C137.237 19.9206 137.694 22.2829 137.629 24.6598Z" fill="#3EA3DC"/>
<path d="M160.689 44.7C157.557 44.7595 154.461 44.0268 151.689 42.57C149.081 41.2262 146.902 39.1772 145.401 36.6562C143.9 34.1351 143.137 31.2433 143.199 28.3099C143.144 25.3357 143.931 22.4066 145.469 19.86C146.981 17.3988 149.13 15.3916 151.689 14.05C154.464 12.601 157.559 11.8721 160.689 11.93C163.495 11.9008 166.287 12.3402 168.949 13.23C171.275 13.9676 173.386 15.2617 175.099 17L168.269 24.66C167.779 24.1676 167.236 23.7316 166.649 23.36C165.993 22.9555 165.283 22.649 164.539 22.45C163.644 22.2204 162.722 22.1128 161.799 22.13C160.665 22.1025 159.543 22.364 158.539 22.89C157.628 23.379 156.884 24.1272 156.399 25.04C155.884 26.0303 155.626 27.1341 155.649 28.25C155.63 29.346 155.877 30.4303 156.369 31.41C156.845 32.3344 157.577 33.1018 158.479 33.6199C159.491 34.1889 160.638 34.4723 161.799 34.4399C162.72 34.4511 163.64 34.3537 164.539 34.15C165.282 33.972 165.993 33.682 166.649 33.29C167.252 32.9335 167.798 32.4885 168.269 31.9699L174.999 39.6899C173.327 41.3925 171.269 42.6653 168.999 43.4C166.32 44.2903 163.512 44.7296 160.689 44.7Z" fill="#3EA3DC"/>
<path d="M180.699 44.1099V2.85985H200.269C203.044 2.80429 205.791 3.42915 208.269 4.67985C210.509 5.82491 212.398 7.55209 213.739 9.67985C215.088 11.8767 215.781 14.4126 215.739 16.9899C215.781 19.6775 215.09 22.3257 213.739 24.6499C212.431 26.8725 210.539 28.695 208.269 29.9199C205.812 31.2368 203.057 31.898 200.269 31.8399H194.119V44.1099H180.699ZM193.869 21.0099H197.789C198.518 21.0219 199.239 20.868 199.899 20.5599C200.498 20.2901 201.005 19.8523 201.359 19.2999C201.729 18.6781 201.913 17.9631 201.889 17.2399C201.919 16.5349 201.734 15.8376 201.359 15.2399C200.996 14.7218 200.488 14.3219 199.899 14.0899C199.227 13.8292 198.51 13.7002 197.789 13.7099H193.869V21.0099Z" fill="#3EA3DC"/>
<path d="M242.998 12.5805V15.7405C242.474 15.1586 241.891 14.6325 241.258 14.1705C240.274 13.4334 239.172 12.8687 237.998 12.5005C236.058 11.932 234.021 11.7718 232.016 12.0299C230.011 12.2881 228.081 12.9591 226.348 14.0005C224.153 15.4259 222.389 17.4247 221.248 19.7805C219.983 22.4358 219.357 25.3499 219.418 28.2905C219.363 31.2188 220.004 34.1184 221.288 36.7505C222.435 39.0994 224.193 41.096 226.378 42.5305C228.588 43.9338 231.161 44.657 233.778 44.6105C236.445 44.6586 239.058 43.8565 241.238 42.3205C241.771 41.9413 242.269 41.5163 242.728 41.0505V44.0505H255.398V12.5805H242.998ZM242.348 31.9105C241.955 32.8405 241.28 33.6239 240.418 34.1505C239.48 34.6807 238.415 34.9436 237.338 34.9105C236.287 34.9392 235.249 34.6761 234.338 34.1505C233.49 33.6162 232.827 32.8342 232.438 31.9105C231.977 30.7676 231.756 29.5423 231.788 28.3105C231.758 27.0722 231.979 25.8407 232.438 24.6905C232.821 23.755 233.485 22.9617 234.338 22.4205C235.249 21.8948 236.287 21.6318 237.338 21.6605C238.415 21.6273 239.48 21.8902 240.418 22.4205C241.286 22.9538 241.961 23.7486 242.348 24.6905C242.808 25.8407 243.029 27.0722 242.998 28.3105C243.04 29.5402 242.829 30.7655 242.378 31.9105H242.348Z" fill="#3EA3DC"/>
<path d="M298.999 12.5803L284.539 44.1003L278.699 57.6603H266.519L273.709 41.5703L259.309 12.5703H273.359L277.999 23.0703C278.489 24.1703 278.909 25.2103 279.269 26.1903C279.439 26.6603 279.579 27.1103 279.699 27.5403C279.989 26.7303 280.319 25.8003 280.699 24.7803L284.999 12.5803H298.999Z" fill="#3EA3DC"/>
</g>
<defs>
<clipPath id="clip0_614_6297">
<rect width="299.02" height="57.16" fill="white" transform="translate(0 0.5)"/>
</clipPath>
</defs>
</svg>
